<svg width="36" height="39" viewBox="0 0 36 39" fill="none" xmlns="http://www.w3.org/2000/svg">
<path d="M21.9698 10.3125C18.5731 10.3125 15.2246 11.7871 12.6688 14.6863V0.388885H7.61035V24.4601C7.61035 24.4607 7.61035 24.4607 7.61035 24.4614C7.61035 32.2757 13.8748 38.6109 21.6026 38.6109C29.3305 38.6109 35.5956 32.2757 35.5956 24.4614C35.5956 16.6471 29.6976 10.3125 21.9698 10.3125ZM21.6026 33.161C16.8517 33.161 12.9993 29.2661 12.9993 24.4614C12.9993 19.6573 16.8517 15.7618 21.6026 15.7618C26.3542 15.7618 30.206 19.6573 30.206 24.4614C30.206 29.2661 26.3542 33.161 21.6026 33.161Z" fill="#959A9B"/>
<path d="M3.93237 31.6133C2.02158 31.6133 0.472168 33.1794 0.472168 35.1122C0.472168 37.0444 2.02158 38.6111 3.93237 38.6111C5.84379 38.6111 7.39258 37.0444 7.39258 35.1122C7.39258 33.1794 5.84379 31.6133 3.93237 31.6133Z" fill="#959A9B"/>
</svg>
