<svg width="37" height="38" viewBox="0 0 37 38" fill="none" xmlns="http://www.w3.org/2000/svg">
<g clip-path="url(#clip0_555_221)">
<path d="M5.42213 34.1406L2.29102 0H36.7333L33.6022 34.1406L19.474 38" fill="#959A9B"/>
<path d="M19.5503 35.0312L30.9292 31.9883L33.6021 2.74609H19.5503" fill="#959A9B"/>
<path d="M9.85158 19.668H19.5504V15.4375H9.46974L9.85158 19.668ZM9.0879 11.1328H19.5504V6.97656H8.70605L9.0879 11.1328ZM19.5504 26.3477L10.0807 23.8984L10.6153 28.3516L19.5504 30.7266V26.3477Z" fill="#EBEBEB"/>
<path d="M19.4739 15.4375V19.668H24.8197L24.2851 25.0859L19.4739 26.3477V30.7266L28.3326 28.3516L30.3182 6.97656H19.4739V11.1328H25.6597L25.2015 15.4375H19.4739Z" fill="white"/>
</g>
<defs>
<clipPath id="clip0_555_221">
<rect width="36.7333" height="38" fill="white"/>
</clipPath>
</defs>
</svg>
