<svg width="484" height="114" viewBox="0 0 484 114" fill="none" xmlns="http://www.w3.org/2000/svg">
<path d="M42 16L57 24.6603L32 39.3205L17 30.6603L42 16Z" fill="#FFCD1D"/>
<path d="M27.2422 53.6342L42.2422 62.2945V50.974L27.2422 42.3137V53.6342Z" fill="#FF961B"/>
<path d="M28 54L43 62.6603L32 68.3205L17 59.6603L28 54Z" fill="#FFCD1D"/>
<path d="M56.8955 53.6342V24.3137L41.8955 32.974V62.2945L49.3955 57.9644L56.8955 53.6342Z" fill="#00B8EC"/>
<path d="M56.8955 42.6342V24.3137L31.8955 38.974V57.2945L49.3955 46.9644L56.8955 42.6342Z" fill="#00B8EC"/>
<path d="M56.8955 69.6342V53.3137L31.8955 67.974V84.2945L49.3955 73.9644L56.8955 69.6342Z" fill="#00B8EC"/>
<path d="M17.2422 75.6342L32.2422 84.2945V67.974L17.2422 59.3137V75.6342Z" fill="#FF961B"/>
<path d="M17.2422 48.6342L32.2422 57.2945V38.974L17.2422 30.3137V48.6342Z" fill="#FF961B"/>
<path d="M15 32L30 40.6603L15 49.3205L0 40.6603L15 32Z" fill="#FFCD1D"/>
<path d="M0.242188 99.6342L15.2422 108.294V48.974L0.242188 40.3137V99.6342Z" fill="#FF961B"/>
<path d="M29.8955 99.6342V40.3137L14.8955 48.974V108.294L22.3955 103.964L29.8955 99.6342Z" fill="#00B8EC"/>
<path d="M111.925 45.125C106.675 45.125 102.1 47 99.1 50.375L98.425 45.95H89.8V99.575H99.775V79.175C102.775 82.175 107.05 83.825 111.925 83.825C122.575 83.825 129.925 75.875 129.925 64.475C129.925 53.075 122.575 45.125 111.925 45.125ZM109.9 75.125C103.9 75.125 99.7 70.7 99.7 64.475C99.7 58.25 103.9 53.825 109.9 53.825C115.825 53.825 120.025 58.25 120.025 64.475C120.025 70.7 115.825 75.125 109.9 75.125Z" fill="black"/>
<path d="M142.286 41.3C145.811 41.3 148.436 38.9 148.436 35.6C148.436 32.15 145.811 29.75 142.286 29.75C138.761 29.75 136.211 32.15 136.211 35.6C136.211 38.9 138.761 41.3 142.286 41.3ZM137.261 83H147.236V45.95H137.261V83Z" fill="black"/>
<path d="M178.642 64.025L190.642 45.95H179.317L174.892 52.7L172.042 57.425L169.267 52.7L164.917 45.95H153.367L165.442 64.025L152.467 83H163.867L168.142 76.625L171.967 70.4L175.792 76.625L179.917 83H191.542L178.642 64.025Z" fill="black"/>
<path d="M212.812 45.2C201.187 45.2 193.312 53 193.312 64.55C193.312 76.4 201.262 83.975 213.787 83.975C220.237 83.975 226.162 81.65 230.062 77.675L224.512 71.975C222.112 74.15 218.137 75.5 214.162 75.5C208.162 75.5 204.112 72.425 203.437 67.775H232.012C233.662 54.05 226.237 45.2 212.812 45.2ZM213.112 53.375C218.662 53.375 222.262 56.375 222.637 61.175H203.587C204.337 56.225 207.862 53.375 213.112 53.375Z" fill="black"/>
<path d="M239.287 83H249.262V30.5H239.287V83Z" fill="black"/>
<path d="M300.231 45.125C295.356 45.125 291.081 46.775 288.081 49.7V30.5H278.106V83H286.731L287.406 78.5C290.406 81.95 294.906 83.825 300.231 83.825C310.881 83.825 318.231 75.875 318.231 64.475C318.231 53.075 310.881 45.125 300.231 45.125ZM298.206 75.125C292.206 75.125 288.006 70.7 288.006 64.475C288.006 58.25 292.206 53.825 298.206 53.825C304.131 53.825 308.331 58.25 308.331 64.475C308.331 70.7 304.131 75.125 298.206 75.125Z" fill="black"/>
<path d="M342.817 45.2C331.192 45.2 323.317 53 323.317 64.55C323.317 76.4 331.267 83.975 343.792 83.975C350.242 83.975 356.167 81.65 360.067 77.675L354.517 71.975C352.117 74.15 348.142 75.5 344.167 75.5C338.167 75.5 334.117 72.425 333.442 67.775H362.017C363.667 54.05 356.242 45.2 342.817 45.2ZM343.117 53.375C348.667 53.375 352.267 56.375 352.642 61.175H333.592C334.342 56.225 337.867 53.375 343.117 53.375Z" fill="black"/>
<path d="M389.167 45.2C385.117 45.2 381.592 46.775 378.742 50.6L377.917 45.95H369.292V83H379.267V64.925C379.267 58.175 382.792 54.35 388.267 54.35C390.367 54.35 392.167 54.875 394.267 56.3L398.617 48.575C396.217 46.325 392.617 45.2 389.167 45.2Z" fill="black"/>
<path d="M403.203 83H413.178V30.5H403.203V83Z" fill="black"/>
<path d="M427.784 41.3C431.309 41.3 433.934 38.9 433.934 35.6C433.934 32.15 431.309 29.75 427.784 29.75C424.259 29.75 421.709 32.15 421.709 35.6C421.709 38.9 424.259 41.3 427.784 41.3ZM422.759 83H432.734V45.95H422.759V83Z" fill="black"/>
<path d="M463.765 45.2C458.89 45.2 454.54 47 451.615 50.225L450.94 45.95H442.315V83H452.29V63.575C452.29 57.875 455.89 53.9 461.29 53.9C466.24 53.9 469.315 57.2 469.315 62.9V83H479.29V62.3C479.29 51.8 473.215 45.2 463.765 45.2Z" fill="black"/>
<rect x="258" y="72" width="11" height="11" fill="black"/>
</svg>
