<svg width="42" height="41" viewBox="0 0 42 41" fill="none" xmlns="http://www.w3.org/2000/svg">
<path d="M38.1024 20.3024C38.1006 16.5739 36.8806 12.9482 34.6282 9.97699C32.3757 7.00582 29.2142 4.85196 25.6248 3.84325C22.0354 2.83455 18.2147 3.02624 14.7443 4.38915C11.2738 5.75206 8.34375 8.21155 6.40001 11.3932C4.45627 14.5749 3.60532 18.3046 3.97668 22.0145C4.34805 25.7244 5.92139 29.2114 8.45723 31.9447C10.9931 34.678 14.3525 36.5079 18.0242 37.1559C21.6959 37.8038 25.4788 37.2344 28.7971 35.5342C29.7166 36.1003 30.7698 36.4124 31.8493 36.4386C32.9288 36.4649 33.9959 36.2044 34.9419 35.6836C35.8878 35.1629 36.6788 34.4006 37.234 33.4745C37.7892 32.5484 38.0889 31.4915 38.1024 30.4118C38.104 29.084 37.6618 27.7937 36.8462 26.746C37.6782 24.6997 38.1049 22.5113 38.1024 20.3024ZM20.9889 34.4973C13.4325 34.4973 7.30837 28.143 7.30837 20.3024C7.30837 12.4617 13.4325 6.09659 20.9889 6.09659C28.5453 6.09659 34.6694 12.459 34.6694 20.3024C34.6717 21.7974 34.4443 23.284 33.9953 24.71C33.3562 24.4929 32.6857 24.3822 32.0108 24.3824C30.4035 24.3745 28.8589 25.0052 27.7166 26.1359C26.5742 27.2665 25.9277 28.8046 25.9191 30.4118C25.9178 31.3982 26.1616 32.3694 26.6284 33.2383C24.8647 34.0696 22.9387 34.4995 20.9889 34.4973V34.4973ZM35.9582 30.4199C35.9536 30.9337 35.8478 31.4415 35.6469 31.9144C35.4461 32.3873 35.154 32.816 34.7875 33.176C34.4209 33.536 33.987 33.8203 33.5106 34.0127C33.0342 34.205 32.5245 34.3016 32.0108 34.2969C31.6748 34.2971 31.3401 34.2552 31.0144 34.1724C30.4767 34.0362 29.9738 33.7878 29.5389 33.4434C29.104 33.0991 28.7469 32.6666 28.4911 32.1743C28.2093 31.6325 28.0625 31.0307 28.0634 30.4199C28.068 29.9062 28.1737 29.3983 28.3746 28.9255C28.5754 28.4526 28.8675 28.0239 29.2341 27.6639C29.6006 27.3038 30.0345 27.0195 30.5109 26.8272C30.9873 26.6349 31.497 26.5383 32.0108 26.5429C32.4117 26.5429 32.8104 26.6022 33.1939 26.7189C33.7603 26.8927 34.2801 27.1921 34.7147 27.5948C35.1492 27.9975 35.4873 28.4931 35.7037 29.0446C35.8727 29.4834 35.959 29.9497 35.9582 30.4199V30.4199Z" fill="#959A9B"/>
</svg>
