<svg width="68" height="12" viewBox="0 0 68 12" fill="none" xmlns="http://www.w3.org/2000/svg">
<path fill-rule="evenodd" clip-rule="evenodd" d="M30.3303 2.60802C32.5462 2.60811 34.6774 3.45955 36.2833 4.98635C36.4043 5.10422 36.5976 5.10274 36.7167 4.98302L37.8727 3.81635C37.933 3.75563 37.9666 3.67338 37.9661 3.5878C37.9656 3.50222 37.931 3.42036 37.87 3.36035C33.6549 -0.679198 27.0051 -0.679198 22.79 3.36035C22.7289 3.42032 22.6943 3.50215 22.6937 3.58773C22.6932 3.67331 22.7267 3.75558 22.787 3.81635L23.9433 4.98302C24.0624 5.10292 24.2558 5.10441 24.3767 4.98635C25.9828 3.45945 28.1142 2.60801 30.3303 2.60802ZM30.3303 6.40368C31.5478 6.40361 32.7219 6.85614 33.6243 7.67335C33.7464 7.78933 33.9387 7.78682 34.0577 7.66768L35.2123 6.50102C35.2731 6.43982 35.3069 6.3568 35.306 6.27054C35.3051 6.18428 35.2697 6.10196 35.2077 6.04202C32.4595 3.48563 28.2035 3.48563 25.4553 6.04202C25.3933 6.10196 25.3578 6.18432 25.357 6.27061C25.3562 6.3569 25.3901 6.43991 25.451 6.50102L26.6053 7.66768C26.7243 7.78682 26.9166 7.78933 27.0387 7.67335C27.9405 6.85668 29.1136 6.40419 30.3303 6.40368ZM32.5493 9.18802C32.6111 9.12741 32.6451 9.04401 32.6433 8.9575C32.6416 8.87099 32.6042 8.78905 32.54 8.73102C31.2644 7.65213 29.3962 7.65213 28.1207 8.73102C28.0564 8.789 28.019 8.87092 28.0172 8.95743C28.0153 9.04394 28.0493 9.12736 28.111 9.18802L30.1087 11.2037C30.1672 11.2629 30.247 11.2963 30.3303 11.2963C30.4136 11.2963 30.4934 11.2629 30.552 11.2037L32.5493 9.18802ZM45.5 1C44.1193 1 43 2.11929 43 3.5V9C43 10.3807 44.1193 11.5 45.5 11.5H61.4687H62.5C63.8807 11.5 65 10.3807 65 9V3.5C65 2.11929 63.8807 1 62.5 1H45.5ZM46 2C44.8954 2 44 2.89543 44 4V8.5C44 9.60457 44.8954 10.5 46 10.5H60.4687H62C63.1046 10.5 64 9.60457 64 8.5V4C64 2.89543 63.1046 2 62 2H46ZM66 8.37398C66.8626 8.15196 67.5 7.36891 67.5 6.43699C67.5 5.50507 66.8626 4.72202 66 4.5V8.37398ZM46 3C45.4477 3 45 3.44772 45 4V8.5C45 9.05229 45.4477 9.5 46 9.5H62C62.5523 9.5 63 9.05229 63 8.5V4C63 3.44772 62.5523 3 62 3H46ZM2.66663 7.33329H1.66663C1.11434 7.33329 0.666626 7.78101 0.666626 8.33329V10.3333C0.666626 10.8856 1.11434 11.3333 1.66663 11.3333H2.66663C3.21891 11.3333 3.66663 10.8856 3.66663 10.3333V8.33329C3.66663 7.78101 3.21891 7.33329 2.66663 7.33329ZM7.33329 5.33329H6.33329C5.78101 5.33329 5.33329 5.78101 5.33329 6.33329V10.3333C5.33329 10.8856 5.78101 11.3333 6.33329 11.3333H7.33329C7.88558 11.3333 8.33329 10.8856 8.33329 10.3333V6.33329C8.33329 5.78101 7.88558 5.33329 7.33329 5.33329ZM12 2.99996H11C10.4477 2.99996 9.99996 3.44767 9.99996 3.99996V10.3333C9.99996 10.8856 10.4477 11.3333 11 11.3333H12C12.5522 11.3333 13 10.8856 13 10.3333V3.99996C13 3.44767 12.5522 2.99996 12 2.99996ZM16.6666 0.666626H15.6666C15.1143 0.666626 14.6666 1.11434 14.6666 1.66663V10.3333C14.6666 10.8856 15.1143 11.3333 15.6666 11.3333H16.6666C17.2189 11.3333 17.6666 10.8856 17.6666 10.3333V1.66663C17.6666 1.11434 17.2189 0.666626 16.6666 0.666626Z" fill="#060606"/>
</svg>
