<svg width="11" height="12" viewBox="0 0 11 12" fill="none" xmlns="http://www.w3.org/2000/svg">
<path d="M6.22976 0.814031L0.341986 6.53503C0.122969 6.74869 0 7.03797 0 7.33953C0 7.64109 0.122969 7.93037 0.341986 8.14403L3.2411 10.96C3.34976 11.0656 3.47876 11.1494 3.62073 11.2065C3.76271 11.2637 3.91487 11.2931 4.06854 11.2931C4.22221 11.2931 4.37438 11.2637 4.51635 11.2065C4.65832 11.1494 4.78732 11.0656 4.89598 10.96L10.7858 5.24003L10.9072 0.707031L6.22976 0.814031ZM8.57519 4.95603C8.3003 5.20722 7.93558 5.34457 7.55827 5.33899C7.18097 5.33341 6.82071 5.18534 6.55382 4.92613C6.28693 4.66693 6.13436 4.31695 6.12842 3.95034C6.12249 3.58372 6.26366 3.22926 6.52204 2.96203C6.79474 2.69829 7.16385 2.55022 7.54861 2.55022C7.93338 2.55022 8.30248 2.69829 8.57519 2.96203C8.84606 3.2271 8.99807 3.58549 8.99807 3.95903C8.99807 4.33257 8.84606 4.69096 8.57519 4.95603V4.95603Z" fill="#5E5E5E"/>
</svg>
