<svg width="39" height="39" viewBox="0 0 39 39" fill="none" xmlns="http://www.w3.org/2000/svg">
<g clip-path="url(#clip0_291_442)">
<path d="M19.2498 38.6111C29.8046 38.6111 38.3609 30.0548 38.3609 19.5C38.3609 8.94522 29.8046 0.388885 19.2498 0.388885C8.69501 0.388885 0.138672 8.94522 0.138672 19.5C0.138672 30.0548 8.69501 38.6111 19.2498 38.6111Z" fill="#959A9B"/>
<path d="M24.8636 17.2306L23.1317 22.6892C23.1317 22.2711 21.9372 13.2172 21.9372 13.2172C19.19 13.2172 17.7328 15.1642 16.9683 17.2306L14.8542 22.7011C14.8542 22.307 14.5556 17.2783 14.5556 17.2783C14.4536 16.1898 13.9559 15.1764 13.1568 14.4301C12.3578 13.6839 11.3127 13.2566 10.2197 13.2292L12.4653 26.9414C15.3319 26.9414 16.8847 24.9945 17.685 22.9281L19.4767 18.2697C19.4767 18.4608 20.6711 26.9414 20.6711 26.9414C21.8433 26.9399 22.9846 26.5651 23.9296 25.8715C24.8745 25.1778 25.574 24.2012 25.9267 23.0833L29.9878 13.2172C27.1211 13.2172 25.6161 15.1642 24.8517 17.2306H24.8636Z" fill="white"/>
</g>
<defs>
<clipPath id="clip0_291_442">
<rect width="38.2222" height="38.2222" fill="white" transform="translate(0.138672 0.388885)"/>
</clipPath>
</defs>
</svg>
