<svg width="39" height="39" viewBox="0 0 39 39" fill="none" xmlns="http://www.w3.org/2000/svg">
<g clip-path="url(#clip0_291_446)">
<path d="M2.73536 19.4995C2.73536 25.9808 6.50193 31.5819 11.9638 34.2362L4.153 12.8357C3.21667 14.9324 2.73358 17.2032 2.73536 19.4995V19.4995ZM30.1635 18.6733C30.1635 16.6496 29.4366 15.2482 28.8131 14.1574C27.9831 12.8086 27.2051 11.6664 27.2051 10.3176C27.2051 8.81237 28.3467 7.41124 29.9547 7.41124C30.0273 7.41124 30.0962 7.42028 30.1669 7.42433C27.2537 4.75542 23.3725 3.12591 19.1096 3.12591C13.3892 3.12591 8.35639 6.0609 5.42857 10.5064C5.81273 10.5179 6.17478 10.526 6.4823 10.526C8.195 10.526 10.8461 10.3182 10.8461 10.3182C11.7288 10.2662 11.8329 11.5626 10.9511 11.667C10.9511 11.667 10.0641 11.7714 9.07705 11.8231L15.0399 29.5592L18.6232 18.8122L16.0721 11.8225C15.1904 11.7707 14.3551 11.6664 14.3551 11.6664C13.4727 11.6146 13.5761 10.2655 14.4585 10.3176C14.4585 10.3176 17.1626 10.5254 18.7716 10.5254C20.4839 10.5254 23.1354 10.3176 23.1354 10.3176C24.0187 10.2655 24.1225 11.562 23.2404 11.6664C23.2404 11.6664 22.3515 11.7707 21.3663 11.8225L27.2837 29.4243L28.9169 23.9665C29.6248 21.7017 30.1635 20.075 30.1635 18.6733V18.6733Z" fill="#959A9B"/>
<path d="M19.3982 20.9318L14.4854 35.2077C15.9874 35.6501 17.5451 35.8747 19.1109 35.8747C21.0177 35.8747 22.8463 35.5451 24.5484 34.9466C24.503 34.875 24.464 34.7995 24.4319 34.721L19.3982 20.9318ZM33.4787 11.6436C33.5491 12.1652 33.589 12.7251 33.589 13.3273C33.589 14.9889 33.2786 16.8568 32.3439 19.1923L27.3423 33.6532C32.2103 30.8145 35.4846 25.5406 35.4846 19.4999C35.4849 16.653 34.7577 13.976 33.4787 11.6436V11.6436Z" fill="#959A9B"/>
<path d="M19.1104 0.412849C8.58583 0.412849 0.0229492 8.97511 0.0229492 19.4996C0.0229492 30.0254 8.58583 38.5874 19.1104 38.5874C29.6346 38.5874 38.1987 30.0254 38.1987 19.4996C38.1984 8.97511 29.6346 0.412849 19.1104 0.412849ZM19.1104 37.7125C9.06845 37.7125 0.89815 29.5422 0.89815 19.4996C0.89815 9.45773 9.06814 1.28805 19.1104 1.28805C29.152 1.28805 37.3216 9.45773 37.3216 19.4996C37.3216 29.5422 29.152 37.7125 19.1104 37.7125Z" fill="#959A9B"/>
</g>
<defs>
<clipPath id="clip0_291_446">
<rect width="38.2222" height="38.2222" fill="white" transform="translate(0 0.388885)"/>
</clipPath>
</defs>
</svg>
