<svg width="944" height="495" viewBox="0 0 944 495" fill="none" xmlns="http://www.w3.org/2000/svg">
<g clip-path="url(#clip0_701_168)">
<path d="M0 40C0 17.9086 17.9086 0 40 0H904C926.091 0 944 17.9086 944 40V455C944 477.091 926.091 495 904 495H40C17.9086 495 0 477.091 0 455V40Z" fill="#00B8EC"/>
<g filter="url(#filter0_d_701_168)">
<rect width="157.875" height="157.875" rx="29.236" transform="matrix(-0.965926 -0.258819 -0.258819 0.965926 913.14 178.53)" fill="white" shape-rendering="crispEdges"/>
<rect width="157.875" height="157.875" rx="29.236" transform="matrix(-0.965926 -0.258819 -0.258819 0.965926 913.14 178.53)" fill="white"/>
<path d="M848.995 225.383C848.995 225.383 831.806 252.176 830.397 254.391C830.787 251.829 838.026 197.413 838.026 197.413C822.115 193.15 810.569 202.201 802.869 212.949C802.869 212.949 783.655 239.274 782.02 241.502C782.562 239.203 788.732 209.532 788.732 209.532C791.689 194.624 780.656 182.115 769.794 179.204L761.592 262.392C778.284 266.79 790.295 257.938 798.203 247.245C798.203 247.245 815.177 224.023 815.907 222.96C815.679 224.083 809.605 275.257 809.605 275.257C826.347 279.743 838.173 271.581 846.108 261.34L884.983 210.069C868.448 205.639 856.713 214.565 848.995 225.383Z" fill="black"/>
</g>
<g filter="url(#filter1_d_701_168)">
<rect width="157.875" height="157.875" rx="29.236" transform="matrix(-0.965926 -0.258819 -0.258819 0.965926 788.212 339.776)" fill="white" shape-rendering="crispEdges"/>
<rect width="157.875" height="157.875" rx="29.236" transform="matrix(-0.965926 -0.258819 -0.258819 0.965926 788.212 339.776)" fill="white"/>
<g clip-path="url(#clip1_701_168)">
<path d="M697.984 347.506L651.415 353.62C648.825 353.96 647.962 357.277 650.059 358.836L687.682 386.809C690.988 389.267 695.107 390.371 699.199 389.895L745.769 384.481C748.363 384.18 749.275 380.875 747.202 379.285L709.929 350.707C706.529 348.099 702.232 346.948 697.984 347.506Z" fill="#FFBF00"/>
<path d="M694.733 398.469L683.559 440.172C683.028 442.155 684.664 444.049 686.703 443.812L738.49 438.174C739.675 438.036 740.654 437.19 740.963 436.038L752.137 394.335C752.669 392.352 751.032 390.458 748.993 390.695L697.206 396.333C696.022 396.471 695.042 397.317 694.733 398.469Z" fill="#26B5F8"/>
<path d="M683.202 397.686L667.48 400.677L665.884 400.982L632.724 407.188C630.62 407.588 628.606 405.593 629.161 403.524L639.649 364.382C639.849 363.633 640.406 363.09 641.051 362.741C641.324 362.583 641.615 362.471 641.906 362.398C642.721 362.165 643.753 362.321 644.514 362.886L684.346 392.483C686.37 393.989 685.698 397.21 683.202 397.686Z" fill="#ED3049"/>
<path d="M683.203 397.686L667.481 400.677L641.052 362.741C641.325 362.583 641.616 362.471 641.906 362.398C642.721 362.165 643.753 362.321 644.515 362.886L684.346 392.483C686.371 393.989 685.698 397.21 683.203 397.686Z" fill="black" fill-opacity="0.25"/>
</g>
</g>
<g filter="url(#filter2_d_701_168)">
<rect width="157.875" height="157.875" rx="29.236" transform="matrix(-0.965926 -0.258819 -0.258819 0.965926 730.521 129.598)" fill="white"/>
</g>
<g clip-path="url(#clip2_701_168)">
<path d="M614.738 256.216C654.027 266.743 694.411 243.427 704.938 204.139C715.466 164.85 692.15 124.466 652.861 113.938C613.572 103.411 573.189 126.727 562.661 166.016C552.134 205.304 575.449 245.688 614.738 256.216Z" fill="white"/>
<path d="M665.787 227.535L649.684 223.22C649.392 223.141 649.118 223.005 648.878 222.819C648.638 222.634 648.438 222.402 648.289 222.139C647.985 221.601 647.904 220.965 648.064 220.369L664.223 160.065C664.383 159.467 664.771 158.956 665.302 158.645C665.563 158.491 665.852 158.39 666.152 158.349C666.453 158.308 666.758 158.327 667.051 158.405L683.154 162.72C683.744 162.878 684.246 163.267 684.55 163.802C684.854 164.337 684.934 164.974 684.774 165.572L668.616 225.875C668.456 226.473 668.068 226.984 667.537 227.296C667.276 227.45 666.986 227.55 666.686 227.591C666.386 227.632 666.08 227.613 665.787 227.535V227.535Z" fill="url(#paint0_linear_701_168)"/>
<path d="M590.527 207.115L577.977 195.997C577.519 195.592 577.241 195.021 577.202 194.41C577.183 194.108 577.224 193.805 577.324 193.519C577.424 193.233 577.58 192.97 577.783 192.745L618.898 146.816C619.308 146.36 619.882 146.085 620.495 146.05C621.108 146.016 621.709 146.226 622.168 146.633L634.719 157.746C635.177 158.153 635.455 158.726 635.492 159.337C635.529 159.947 635.32 160.547 634.911 161.004L593.798 206.933C593.387 207.389 592.813 207.664 592.2 207.698C591.587 207.732 590.986 207.522 590.527 207.115V207.115Z" fill="url(#paint1_linear_701_168)"/>
<path d="M633.492 218.629L660.038 162.87C660.305 162.316 660.354 161.683 660.177 161.095C660.094 160.814 659.955 160.553 659.769 160.326C659.583 160.1 659.353 159.914 659.093 159.778L644.972 152.537C644.715 152.405 644.432 152.328 644.144 152.313C643.855 152.297 643.566 152.343 643.296 152.447C643.017 152.551 642.762 152.71 642.545 152.913C642.323 153.121 642.142 153.368 642.011 153.643L615.464 209.402C615.2 209.955 615.151 210.587 615.327 211.175C615.411 211.456 615.549 211.718 615.735 211.944C615.921 212.171 616.151 212.358 616.411 212.494L630.532 219.735C630.788 219.867 631.067 219.942 631.355 219.958C631.643 219.972 631.934 219.928 632.208 219.825C632.484 219.723 632.738 219.564 632.959 219.359C633.178 219.153 633.36 218.906 633.492 218.629Z" fill="url(#paint2_linear_701_168)"/>
</g>
<g filter="url(#filter3_d_701_168)">
<rect width="157.875" height="157.875" rx="29.236" transform="matrix(-0.965926 -0.258819 -0.258819 0.965926 885.824 -24.5177)" fill="white" shape-rendering="crispEdges"/>
<rect width="157.875" height="157.875" rx="29.236" transform="matrix(-0.965926 -0.258819 -0.258819 0.965926 885.824 -24.5177)" fill="white"/>
<g clip-path="url(#clip3_701_168)">
<path d="M739.114 66.5621L757.563 -39.1798L859 -12L822.107 88.8001L777.37 89.3251" fill="#E34F26"/>
<path d="M780 80.4053L815.979 80.1803L847.552 -6.16431L806.168 -17.2532" fill="#EF652A"/>
<path d="M799.371 8.11556L802.74 -4.45657L802.515 -4.51684L770.802 -13.0143L768.333 -0.201092L799.371 8.11556ZM787.039 54.1385L773.667 46.465L775.475 36.1213L762.879 32.7465L759.1 53.149L783.49 67.3842L787.039 54.1385Z" fill="#EBEBEB"/>
<path d="M817.364 12.9368L802.006 54.0584L786.814 54.0783L783.265 67.3239L811.28 67.1306L834.452 4.04086L802.515 -4.51685L799.146 8.05528L817.364 12.9368Z" fill="white"/>
</g>
</g>
<g filter="url(#filter4_d_701_168)">
<rect width="157.875" height="157.875" rx="29.236" transform="matrix(-0.965926 -0.258819 -0.258819 0.965926 969.888 388.456)" fill="#BFEDFA"/>
</g>
<g filter="url(#filter5_d_701_168)">
<rect width="157.875" height="157.875" rx="29.236" transform="matrix(-0.965926 -0.258819 -0.258819 0.965926 704.147 -73.1978)" fill="#BFEDFA"/>
</g>
<g filter="url(#filter6_d_701_168)">
<rect width="157.875" height="157.875" rx="29.236" transform="matrix(-0.965926 -0.258819 -0.258819 0.965926 1067.75 23.2209)" fill="#40CAF1"/>
</g>
<g filter="url(#filter7_d_701_168)">
<rect width="157.875" height="157.875" rx="29.236" transform="matrix(-0.965926 -0.258819 -0.258819 0.965926 1094.82 227.21)" fill="white"/>
</g>
<g filter="url(#filter8_d_701_168)">
<rect x="488.6" y="366.196" width="530.6" height="309.861" rx="36.1937" transform="rotate(180 488.6 366.196)" fill="white" shape-rendering="crispEdges"/>
<path d="M-30.6506 366.197H477.25C483.52 366.197 488.6 361.115 488.6 354.847V67.6831C488.6 61.4151 483.52 56.3357 477.25 56.3357H-30.6506C-36.921 56.3357 -42.0005 61.4151 -42.0005 67.6831V354.847C-42.0005 361.115 -36.921 366.197 -30.6506 366.197Z" fill="#BFEDFA"/>
<path d="M481.281 350.834V90.5068C481.281 86.7302 478.222 83.6681 474.443 83.6681H-27.8424C-31.6215 83.6681 -34.6835 86.7302 -34.6835 90.5068V350.834C-34.6835 354.611 -31.6215 357.673 -27.8424 357.673H474.443C478.222 357.673 481.281 354.611 481.281 350.834Z" fill="white"/>
<path d="M-9.05984 70.0114C-9.05984 73.7211 -6.05238 76.731 -2.34022 76.731C1.36945 76.731 4.37939 73.7211 4.37939 70.0114C4.37939 66.2992 1.36945 63.2918 -2.34022 63.2918C-6.05238 63.2918 -9.05984 66.2992 -9.05984 70.0114Z" fill="white"/>
<path d="M13.1369 70.0116C13.1369 73.7213 16.1444 76.7312 19.8566 76.7312C23.5687 76.7312 26.5762 73.7213 26.5762 70.0116C26.5762 66.2995 23.5687 63.292 19.8566 63.292C16.1444 63.292 13.1369 66.2995 13.1369 70.0116Z" fill="white"/>
<path d="M272.508 235.993V239.095H275.609V240.335H271.887L271.448 240.154L271.267 239.715V235.993H272.508Z" fill="#782CE4"/>
<path d="M248.958 262.405H445.04V121.643H248.958V262.405Z" fill="#00B8EC"/>
<path d="M261.646 251.109V248.628H428.619L378.738 154.526L340.467 220.546C340.078 221.221 339.383 221.675 338.609 221.767C337.835 221.859 337.056 221.573 336.52 221.01L310.991 194.062L263.574 252.67L261.646 251.109V248.628V251.109L259.716 249.549L308.914 188.737C309.366 188.179 310.031 187.846 310.748 187.819C311.465 187.792 312.152 188.07 312.646 188.593L337.84 215.186L376.688 148.167C377.14 147.387 377.981 146.914 378.882 146.931C379.785 146.948 380.604 147.452 381.028 148.248L434.934 249.948C435.343 250.717 435.316 251.643 434.869 252.39C434.42 253.134 433.614 253.591 432.743 253.591H261.646C260.688 253.591 259.818 253.042 259.406 252.179C258.994 251.315 259.115 250.293 259.716 249.549L261.646 251.109" fill="white"/>
<path d="M313.518 155.015H315.999C315.999 158.961 317.592 162.509 320.175 165.097C322.763 167.683 326.314 169.273 330.26 169.276C334.205 169.273 337.753 167.683 340.341 165.097C342.925 162.509 344.518 158.961 344.518 155.015C344.518 151.07 342.925 147.521 340.341 144.933C337.753 142.348 334.205 140.757 330.26 140.755C326.314 140.757 322.763 142.348 320.175 144.933C317.592 147.521 315.999 151.07 315.999 155.015H313.518H311.036C311.039 144.397 319.642 135.794 330.26 135.792C340.875 135.794 349.478 144.397 349.48 155.015C349.478 165.633 340.875 174.236 330.26 174.238C319.642 174.236 311.039 165.633 311.036 155.015H313.518Z" fill="white"/>
<path d="M-17.8205 116.146H226.422V101.128H-17.8205V116.146Z" fill="#80DBF5"/>
<path d="M156.231 136.298H226.422V128.789H156.231V136.298Z" fill="#BFEDFA"/>
<path d="M118.173 136.298H146.659V128.789H118.173V136.298Z" fill="#BFEDFA"/>
<path d="M32.4822 136.298H107.229V128.789H32.4822V136.298" fill="#BFEDFA"/>
<path d="M-17.8198 136.298H26.5771V128.789H-17.8198V136.298Z" fill="#BFEDFA"/>
<path d="M133.896 155.015H226.422V147.506H133.896V155.015Z" fill="#BFEDFA"/>
<path d="M87.6347 155.015H123.64V147.506H87.6347V155.015Z" fill="#BFEDFA"/>
<path d="M43.4203 155.015H79.4253V147.506H43.4203V155.015Z" fill="#BFEDFA"/>
<path d="M-7.85728 155.015H37.8599V147.506H-7.85728V155.015Z" fill="#BFEDFA"/>
<path d="M200.671 173.732H226.422V166.224H200.671V173.732Z" fill="#BFEDFA"/>
<path d="M59.3742 173.732H105.637V166.224H59.3742V173.732Z" fill="#BFEDFA"/>
<path d="M113.388 173.732H194.745V166.224H113.388V173.732Z" fill="#BFEDFA"/>
<path d="M168.085 192.45H226.422V184.938H168.085V192.45Z" fill="#BFEDFA"/>
<path d="M138.455 192.45H158.053V184.938H138.455V192.45Z" fill="#BFEDFA"/>
<path d="M90.8248 192.45H129.336V184.938H90.8248V192.45Z" fill="#BFEDFA"/>
<path d="M204.091 211.164H226.423V203.656H204.091V211.164Z" fill="#BFEDFA"/>
<path d="M146.659 211.164H195.656V203.656H146.659V211.164Z" fill="#BFEDFA"/>
<path d="M248.959 342.494H467.966V277.35H248.959V342.494Z" fill="#BFEDFA"/>
<path d="M420.584 320.427H462.145V281.769H420.584V320.427" fill="#BFEDFA"/>
<path d="M420.585 337.658H462.146V326.169H420.585V337.658" fill="#BFEDFA"/>
<path d="M409.185 299H367.624V337.658H409.185V299Z" fill="#BFEDFA"/>
<path d="M409.185 281.77H367.624V293.256H409.185V281.77Z" fill="#BFEDFA"/>
<path d="M310.554 320.427H352.117V281.77H310.554V320.427Z" fill="#BFEDFA"/>
<path d="M310.555 337.658H352.118V326.169H310.555V337.658Z" fill="#BFEDFA"/>
<path d="M299.155 299H257.592V337.658H299.155V299Z" fill="#BFEDFA"/>
<path d="M299.155 281.77H257.592V293.256H299.155V281.77Z" fill="#BFEDFA"/>
<path d="M-25.1819 238.06H221.334V229.708C221.334 226.881 219.046 224.594 216.22 224.594H-20.0678C-22.8916 224.594 -25.1819 226.881 -25.1819 229.708V238.06" fill="#BFEDFA"/>
<path d="M-25.1829 232.981H221.333V337.556C221.333 341.276 218.321 344.291 214.601 344.291H-18.4483C-22.1679 344.291 -25.1829 341.276 -25.1829 337.556V232.981ZM-22.7015 235.462V337.556C-22.7015 339.901 -20.7933 341.809 -18.4483 341.809H214.601C216.946 341.809 218.852 339.901 218.852 337.556V235.462H-22.7015Z" fill="#BFEDFA"/>
<path d="M181.744 335.851H212.761V246.365H181.744V335.851Z" fill="#BFEDFA"/>
<path d="M-14.4055 335.851H135.46V246.365H-14.4055V335.851Z" fill="#BFEDFA"/>
<path d="M-7.06372 260.236H127.475V251.11H-7.06372V260.236Z" fill="#BFEDFA"/>
<path d="M-7.06421 270.288H127.474V265.725H-7.06421V270.288Z" fill="#BFEDFA"/>
<path d="M144.207 276.397H175.225V265.725H144.207V276.397Z" fill="#BFEDFA"/>
<path d="M98.5347 329.137H127.475V274.412H98.5347V329.137Z" fill="#BFEDFA"/>
<path d="M27.4809 329.137H56.4238V274.412H27.4809V329.137" fill="#BFEDFA"/>
<path d="M89.7281 327.896H63.2691V275.65H89.7281V327.896ZM60.7877 330.377H92.2095V273.169H60.7877V330.377Z" fill="#BFEDFA"/>
<path d="M20.6363 327.896H-5.82272V275.651H20.6363V327.896ZM-8.3041 330.378H23.1177V273.169H-8.3041V330.378Z" fill="#BFEDFA"/>
<path d="M144.209 295.755H175.226V285.085H144.209V295.755Z" fill="#BFEDFA"/>
<path d="M144.208 315.115H175.225V304.442H144.208V315.115Z" fill="#BFEDFA"/>
<path d="M144.208 334.474H175.225V323.802H144.208V334.474Z" fill="#BFEDFA"/>
</g>
<g filter="url(#filter9_d_701_168)">
<rect x="273" y="423" width="234.031" height="141" rx="14.5361" transform="rotate(180 273 423)" fill="white" shape-rendering="crispEdges"/>
<path d="M44.0598 423H268.457C270.965 423 273 421.066 273 418.68V286.539C273 284.153 270.965 282.219 268.457 282.219H44.0598C41.5511 282.219 39.5186 284.153 39.5186 286.539V418.68C39.5186 421.066 41.5511 423 44.0598 423" fill="#00B8EC"/>
<path d="M269.357 415.241V296.279C269.357 294.399 267.754 292.873 265.779 292.873H45.8944C43.9175 292.873 42.3158 294.399 42.3158 296.279V415.241C42.3158 417.122 43.9175 418.646 45.8944 418.646H265.779C267.754 418.646 269.357 417.122 269.357 415.241Z" fill="white"/>
<path d="M43.8205 287.158C43.8205 288.712 45.146 289.971 46.7787 289.971C48.4113 289.971 49.7368 288.712 49.7368 287.158C49.7368 285.605 48.4113 284.344 46.7787 284.344C45.146 284.344 43.8205 285.605 43.8205 287.158Z" fill="white"/>
<path d="M53.5913 287.158C53.5913 288.712 54.9126 289.971 56.5453 289.971C58.18 289.971 59.5034 288.712 59.5034 287.158C59.5034 285.605 58.18 284.344 56.5453 284.344C54.9126 284.344 53.5913 285.605 53.5913 287.158Z" fill="white"/>
<path d="M63.3583 287.158C63.3583 288.712 64.6817 289.971 66.3143 289.971C67.947 289.971 69.2725 288.712 69.2725 287.158C69.2725 285.605 67.947 284.344 66.3143 284.344C64.6817 284.344 63.3583 285.605 63.3583 287.158Z" fill="white"/>
<path d="M237.321 315.386C237.321 321.666 242.672 326.759 249.273 326.759C255.876 326.759 261.227 321.666 261.227 315.386C261.227 309.107 255.876 304.014 249.273 304.014C242.672 304.014 237.321 309.107 237.321 315.386Z" fill="#00B8EC"/>
<path d="M53.5913 309.476H231.829V304.104H53.5913V309.476Z" fill="#00B8EC"/>
<path d="M110.521 318.071H231.829V312.701H110.521V318.071Z" fill="#00B8EC"/>
<path d="M168.75 327.2H231.829V321.827H168.75V327.2Z" fill="#00B8EC"/>
<path d="M237.321 351.604C237.321 357.883 242.672 362.974 249.273 362.974C255.876 362.974 261.227 357.883 261.227 351.604C261.227 345.322 255.876 340.231 249.273 340.231C242.672 340.231 237.321 345.322 237.321 351.604Z" fill="#80DBF5"/>
<path d="M53.5913 345.691H231.829V340.32H53.5913V345.691Z" fill="#BFEDFA"/>
<path d="M110.521 354.288H231.829V348.917H110.521V354.288Z" fill="#BFEDFA"/>
<path d="M168.75 363.414H231.829V358.044H168.75V363.414Z" fill="#BFEDFA"/>
<path d="M237.321 387.817C237.321 394.099 242.672 399.19 249.273 399.19C255.876 399.19 261.227 394.099 261.227 387.817C261.227 381.538 255.876 376.447 249.273 376.447C242.672 376.447 237.321 381.538 237.321 387.817Z" fill="#BFEDFA"/>
<path d="M53.5913 381.906H231.829V376.535H53.5913V381.906Z" fill="#80DBF5"/>
<path d="M110.521 390.504H231.829V385.133H110.521V390.504Z" fill="#BFEDFA"/>
<path d="M168.75 399.631H231.829V394.26H168.75V399.631Z" fill="#BFEDFA"/>
</g>
</g>
<defs>
<filter id="filter0_d_701_168" x="717.783" y="136.669" width="197.356" height="197.356" filterUnits="userSpaceOnUse" color-interpolation-filters="sRGB">
<feFlood flood-opacity="0" result="BackgroundImageFix"/>
<feColorMatrix in="SourceAlpha" type="matrix" values="0 0 0 0 0 0 0 0 0 0 0 0 0 0 0 0 0 0 127 0" result="hardAlpha"/>
<feOffset dy="1"/>
<feGaussianBlur stdDeviation="1"/>
<feComposite in2="hardAlpha" operator="out"/>
<feColorMatrix type="matrix" values="0 0 0 0 0.00286728 0 0 0 0 0.533667 0 0 0 0 0.683675 0 0 0 0.23 0"/>
<feBlend mode="normal" in2="BackgroundImageFix" result="effect1_dropShadow_701_168"/>
<feBlend mode="normal" in="SourceGraphic" in2="effect1_dropShadow_701_168" result="shape"/>
</filter>
<filter id="filter1_d_701_168" x="592.855" y="297.915" width="197.356" height="197.356" filterUnits="userSpaceOnUse" color-interpolation-filters="sRGB">
<feFlood flood-opacity="0" result="BackgroundImageFix"/>
<feColorMatrix in="SourceAlpha" type="matrix" values="0 0 0 0 0 0 0 0 0 0 0 0 0 0 0 0 0 0 127 0" result="hardAlpha"/>
<feOffset dy="1"/>
<feGaussianBlur stdDeviation="1"/>
<feComposite in2="hardAlpha" operator="out"/>
<feColorMatrix type="matrix" values="0 0 0 0 0.00286728 0 0 0 0 0.533667 0 0 0 0 0.683675 0 0 0 0.23 0"/>
<feBlend mode="normal" in2="BackgroundImageFix" result="effect1_dropShadow_701_168"/>
<feBlend mode="normal" in="SourceGraphic" in2="effect1_dropShadow_701_168" result="shape"/>
</filter>
<filter id="filter2_d_701_168" x="541.729" y="94.3005" width="184.229" height="184.229" filterUnits="userSpaceOnUse" color-interpolation-filters="sRGB">
<feFlood flood-opacity="0" result="BackgroundImageFix"/>
<feColorMatrix in="SourceAlpha" type="matrix" values="0 0 0 0 0 0 0 0 0 0 0 0 0 0 0 0 0 0 127 0" result="hardAlpha"/>
<feOffset dy="1"/>
<feGaussianBlur stdDeviation="1"/>
<feComposite in2="hardAlpha" operator="out"/>
<feColorMatrix type="matrix" values="0 0 0 0 0.00286728 0 0 0 0 0.533667 0 0 0 0 0.683675 0 0 0 0.23 0"/>
<feBlend mode="normal" in2="BackgroundImageFix" result="effect1_dropShadow_701_168"/>
<feBlend mode="normal" in="SourceGraphic" in2="effect1_dropShadow_701_168" result="shape"/>
</filter>
<filter id="filter3_d_701_168" x="690.468" y="-66.3787" width="197.356" height="197.356" filterUnits="userSpaceOnUse" color-interpolation-filters="sRGB">
<feFlood flood-opacity="0" result="BackgroundImageFix"/>
<feColorMatrix in="SourceAlpha" type="matrix" values="0 0 0 0 0 0 0 0 0 0 0 0 0 0 0 0 0 0 127 0" result="hardAlpha"/>
<feOffset dy="1"/>
<feGaussianBlur stdDeviation="1"/>
<feComposite in2="hardAlpha" operator="out"/>
<feColorMatrix type="matrix" values="0 0 0 0 0.00286728 0 0 0 0 0.533667 0 0 0 0 0.683675 0 0 0 0.23 0"/>
<feBlend mode="normal" in2="BackgroundImageFix" result="effect1_dropShadow_701_168"/>
<feBlend mode="normal" in="SourceGraphic" in2="effect1_dropShadow_701_168" result="shape"/>
</filter>
<filter id="filter4_d_701_168" x="781.095" y="353.159" width="184.229" height="184.229" filterUnits="userSpaceOnUse" color-interpolation-filters="sRGB">
<feFlood flood-opacity="0" result="BackgroundImageFix"/>
<feColorMatrix in="SourceAlpha" type="matrix" values="0 0 0 0 0 0 0 0 0 0 0 0 0 0 0 0 0 0 127 0" result="hardAlpha"/>
<feOffset dy="1"/>
<feGaussianBlur stdDeviation="1"/>
<feComposite in2="hardAlpha" operator="out"/>
<feColorMatrix type="matrix" values="0 0 0 0 0.00286728 0 0 0 0 0.533667 0 0 0 0 0.683675 0 0 0 0.23 0"/>
<feBlend mode="normal" in2="BackgroundImageFix" result="effect1_dropShadow_701_168"/>
<feBlend mode="normal" in="SourceGraphic" in2="effect1_dropShadow_701_168" result="shape"/>
</filter>
<filter id="filter5_d_701_168" x="515.354" y="-108.495" width="184.229" height="184.229" filterUnits="userSpaceOnUse" color-interpolation-filters="sRGB">
<feFlood flood-opacity="0" result="BackgroundImageFix"/>
<feColorMatrix in="SourceAlpha" type="matrix" values="0 0 0 0 0 0 0 0 0 0 0 0 0 0 0 0 0 0 127 0" result="hardAlpha"/>
<feOffset dy="1"/>
<feGaussianBlur stdDeviation="1"/>
<feComposite in2="hardAlpha" operator="out"/>
<feColorMatrix type="matrix" values="0 0 0 0 0.00286728 0 0 0 0 0.533667 0 0 0 0 0.683675 0 0 0 0.23 0"/>
<feBlend mode="normal" in2="BackgroundImageFix" result="effect1_dropShadow_701_168"/>
<feBlend mode="normal" in="SourceGraphic" in2="effect1_dropShadow_701_168" result="shape"/>
</filter>
<filter id="filter6_d_701_168" x="878.959" y="-12.0767" width="184.229" height="184.229" filterUnits="userSpaceOnUse" color-interpolation-filters="sRGB">
<feFlood flood-opacity="0" result="BackgroundImageFix"/>
<feColorMatrix in="SourceAlpha" type="matrix" values="0 0 0 0 0 0 0 0 0 0 0 0 0 0 0 0 0 0 127 0" result="hardAlpha"/>
<feOffset dy="1"/>
<feGaussianBlur stdDeviation="1"/>
<feComposite in2="hardAlpha" operator="out"/>
<feColorMatrix type="matrix" values="0 0 0 0 0.00286728 0 0 0 0 0.533667 0 0 0 0 0.683675 0 0 0 0.23 0"/>
<feBlend mode="normal" in2="BackgroundImageFix" result="effect1_dropShadow_701_168"/>
<feBlend mode="normal" in="SourceGraphic" in2="effect1_dropShadow_701_168" result="shape"/>
</filter>
<filter id="filter7_d_701_168" x="906.022" y="191.913" width="184.229" height="184.229" filterUnits="userSpaceOnUse" color-interpolation-filters="sRGB">
<feFlood flood-opacity="0" result="BackgroundImageFix"/>
<feColorMatrix in="SourceAlpha" type="matrix" values="0 0 0 0 0 0 0 0 0 0 0 0 0 0 0 0 0 0 127 0" result="hardAlpha"/>
<feOffset dy="1"/>
<feGaussianBlur stdDeviation="1"/>
<feComposite in2="hardAlpha" operator="out"/>
<feColorMatrix type="matrix" values="0 0 0 0 0.00286728 0 0 0 0 0.533667 0 0 0 0 0.683675 0 0 0 0.23 0"/>
<feBlend mode="normal" in2="BackgroundImageFix" result="effect1_dropShadow_701_168"/>
<feBlend mode="normal" in="SourceGraphic" in2="effect1_dropShadow_701_168" result="shape"/>
</filter>
<filter id="filter8_d_701_168" x="-69.2361" y="34.052" width="585.071" height="364.332" filterUnits="userSpaceOnUse" color-interpolation-filters="sRGB">
<feFlood flood-opacity="0" result="BackgroundImageFix"/>
<feColorMatrix in="SourceAlpha" type="matrix" values="0 0 0 0 0 0 0 0 0 0 0 0 0 0 0 0 0 0 127 0" result="hardAlpha"/>
<feMorphology radius="2.47597" operator="dilate" in="SourceAlpha" result="effect1_dropShadow_701_168"/>
<feOffset dy="4.95194"/>
<feGaussianBlur stdDeviation="12.3798"/>
<feComposite in2="hardAlpha" operator="out"/>
<feColorMatrix type="matrix" values="0 0 0 0 0 0 0 0 0 0.484268 0 0 0 0 0.621126 0 0 0 1 0"/>
<feBlend mode="normal" in2="BackgroundImageFix" result="effect1_dropShadow_701_168"/>
<feBlend mode="normal" in="SourceGraphic" in2="effect1_dropShadow_701_168" result="shape"/>
</filter>
<filter id="filter9_d_701_168" x="6.98986" y="255.835" width="297.99" height="204.959" filterUnits="userSpaceOnUse" color-interpolation-filters="sRGB">
<feFlood flood-opacity="0" result="BackgroundImageFix"/>
<feColorMatrix in="SourceAlpha" type="matrix" values="0 0 0 0 0 0 0 0 0 0 0 0 0 0 0 0 0 0 127 0" result="hardAlpha"/>
<feMorphology radius="2.90722" operator="dilate" in="SourceAlpha" result="effect1_dropShadow_701_168"/>
<feOffset dy="5.81443"/>
<feGaussianBlur stdDeviation="14.5361"/>
<feComposite in2="hardAlpha" operator="out"/>
<feColorMatrix type="matrix" values="0 0 0 0 0 0 0 0 0 0.484268 0 0 0 0 0.621126 0 0 0 1 0"/>
<feBlend mode="normal" in2="BackgroundImageFix" result="effect1_dropShadow_701_168"/>
<feBlend mode="normal" in="SourceGraphic" in2="effect1_dropShadow_701_168" result="shape"/>
</filter>
<linearGradient id="paint0_linear_701_168" x1="633.61" y1="196.135" x2="681.46" y2="191.971" gradientUnits="userSpaceOnUse">
<stop offset="0.02" stop-color="#B02DE9"/>
<stop offset="0.8" stop-color="#6D00CC"/>
</linearGradient>
<linearGradient id="paint1_linear_701_168" x1="596.798" y1="178.256" x2="649.212" y2="170.401" gradientUnits="userSpaceOnUse">
<stop stop-color="#FF00FF"/>
<stop offset="0.18" stop-color="#E80DF9"/>
<stop offset="0.54" stop-color="#C024ED"/>
<stop offset="0.73" stop-color="#B02DE9"/>
</linearGradient>
<linearGradient id="paint2_linear_701_168" x1="584.889" y1="192.114" x2="685.671" y2="185.015" gradientUnits="userSpaceOnUse">
<stop offset="0.02" stop-color="#FF00FF"/>
<stop offset="0.09" stop-color="#E80DF9"/>
<stop offset="0.23" stop-color="#C024ED"/>
<stop offset="0.3" stop-color="#B02DE9"/>
<stop offset="0.42" stop-color="#A42BE3"/>
<stop offset="0.63" stop-color="#8527D5"/>
<stop offset="0.85" stop-color="#6021C3"/>
</linearGradient>
<clipPath id="clip0_701_168">
<rect width="944" height="495" rx="40" transform="matrix(-1 0 0 1 944 0)" fill="white"/>
</clipPath>
<clipPath id="clip1_701_168">
<rect width="116.462" height="116.462" fill="white" transform="translate(650.507 323.857) rotate(15)"/>
</clipPath>
<clipPath id="clip2_701_168">
<rect width="147.296" height="147.296" fill="white" transform="translate(581.723 94.877) rotate(15)"/>
</clipPath>
<clipPath id="clip3_701_168">
<rect width="112" height="119" fill="white" transform="translate(750.816 -40.9878) rotate(15)"/>
</clipPath>
</defs>
</svg>
