<svg width="944" height="495" viewBox="0 0 944 495" fill="none" xmlns="http://www.w3.org/2000/svg">
<g clip-path="url(#clip0_126_319)">
<path d="M0 40C0 17.9086 17.9086 0 40 0H904C926.091 0 944 17.9086 944 40V455C944 477.091 926.091 495 904 495H40C17.9086 495 0 477.091 0 455V40Z" fill="#FF961B"/>
<g filter="url(#filter0_d_126_319)">
<rect width="157.875" height="157.875" rx="29.236" transform="matrix(-0.965926 -0.258819 -0.258819 0.965926 913.139 178.53)" fill="white"/>
<g clip-path="url(#clip1_126_319)">
<path d="M800.471 291.955C832.479 300.532 865.379 281.537 873.956 249.529C882.532 217.521 863.537 184.621 831.529 176.044C799.521 167.468 766.621 186.463 758.045 218.471C749.468 250.479 768.463 283.379 800.471 291.955Z" fill="#4353FF"/>
<path d="M834.869 231.679L825.181 246.826C825.52 245.558 829.255 217.131 829.255 217.131C820.924 214.898 814.923 219.619 810.926 225.264L800.069 240.136C800.389 238.94 803.57 223.448 803.57 223.448C804.145 220.064 803.459 216.587 801.643 213.674C799.826 210.762 797.004 208.617 793.711 207.646L789.379 251.053C798.072 253.383 804.363 248.74 808.469 243.124L817.688 230.453C817.533 231.033 814.264 257.721 814.264 257.721C817.82 258.669 821.585 258.46 825.015 257.124C828.444 255.789 831.359 253.396 833.336 250.292L853.669 223.672C844.976 221.343 838.83 226.024 834.832 231.67L834.869 231.679Z" fill="white"/>
</g>
</g>
<g filter="url(#filter1_d_126_319)">
<rect width="157.875" height="157.875" rx="29.236" transform="matrix(-0.965926 -0.258819 -0.258819 0.965926 730.521 129.598)" fill="white"/>
<g clip-path="url(#clip2_126_319)">
<path d="M588.56 173.274C583.685 191.47 590.046 210.029 603.383 221.59L597.554 155.631C593.347 160.813 590.283 166.825 588.56 173.274ZM666.188 191.587C667.711 185.906 666.724 181.424 665.794 177.893C664.479 173.482 663.154 169.69 664.168 165.903C665.301 161.677 669.56 158.602 674.074 159.812C674.278 159.866 674.465 159.943 674.66 160.008C668.489 150.323 658.818 142.828 646.85 139.622C630.789 135.318 614.451 139.772 602.887 150.051C603.957 150.372 604.967 150.667 605.831 150.899C610.639 152.187 618.239 153.598 618.239 153.598C620.756 154.116 620.073 157.834 617.519 157.464C617.519 157.464 614.95 157.089 612.14 156.492L615.538 210.773L633.684 183.296L631.779 161.753C629.343 160.944 627.076 160.023 627.076 160.023C624.638 159.214 625.943 155.504 628.381 156.314C628.381 156.314 635.817 158.931 640.334 160.142C645.142 161.43 652.742 162.841 652.742 162.841C655.261 163.36 654.577 167.077 652.022 166.707C652.022 166.707 649.448 166.331 646.643 165.735L650.015 219.605L658.706 205.511C662.397 199.685 665.134 195.523 666.188 191.587Z" fill="#21759B"/>
<path d="M634.261 189.829L609.728 226.213C613.612 228.585 617.817 230.388 622.213 231.566C627.566 233 632.948 233.45 638.177 233.051C638.104 232.815 638.051 232.574 638.02 232.33L634.261 189.829ZM680.78 174.344C680.585 175.861 680.276 177.463 679.823 179.154C678.573 183.819 676.297 188.83 671.915 194.684L646.994 231.521C662.797 227.213 675.957 214.87 680.502 197.91C682.644 189.918 682.616 181.855 680.78 174.344Z" fill="#21759B"/>
<path d="M648.89 132.004C619.342 124.087 588.86 141.684 580.943 171.232C573.024 200.784 590.624 231.264 620.172 239.181C649.72 247.099 680.205 229.503 688.123 199.951C696.04 170.403 678.438 139.921 648.89 132.004ZM620.83 236.725C592.637 229.171 575.845 200.086 583.4 171.891C590.954 143.697 620.038 126.907 648.232 134.461C676.424 142.015 693.215 171.098 685.661 199.292C678.106 227.487 649.023 244.279 620.83 236.725Z" fill="#21759B"/>
</g>
</g>
<g filter="url(#filter2_d_126_319)">
<rect width="157.875" height="157.875" rx="29.236" transform="matrix(-0.965926 -0.258819 -0.258819 0.965926 788.211 339.776)" fill="#FFB054"/>
</g>
<g filter="url(#filter3_d_126_319)">
<rect width="157.875" height="157.875" rx="29.236" transform="matrix(-0.965926 -0.258819 -0.258819 0.965926 885.824 -24.5177)" fill="#FFE5C6"/>
</g>
<g filter="url(#filter4_d_126_319)">
<rect width="157.875" height="157.875" rx="29.236" transform="matrix(-0.965926 -0.258819 -0.258819 0.965926 969.888 388.456)" fill="#FFE5C6"/>
</g>
<g filter="url(#filter5_d_126_319)">
<rect width="157.875" height="157.875" rx="29.236" transform="matrix(-0.965926 -0.258819 -0.258819 0.965926 704.147 -73.1978)" fill="#FFE5C6"/>
</g>
<g filter="url(#filter6_d_126_319)">
<path d="M1060.19 51.4608C1064.36 35.8644 1055.11 19.8332 1039.51 15.6541L943.497 -10.0732C927.901 -14.2522 911.87 -4.99658 907.691 10.5998L881.963 106.615C877.784 122.212 887.04 138.243 902.636 142.422L998.652 168.149C1014.25 172.328 1030.28 163.073 1034.46 147.476L1060.19 51.4608Z" fill="#FFB054"/>
</g>
<g filter="url(#filter7_d_126_319)">
<rect width="157.875" height="157.875" rx="29.236" transform="matrix(-0.965926 -0.258819 -0.258819 0.965926 1094.82 227.21)" fill="#FFE5C6"/>
</g>
<path d="M191.647 306.926H-70.7311C-74.6319 306.926 -77.7935 303.764 -77.7935 299.865V83.8001C-77.7935 79.8992 -74.6319 76.7377 -70.7311 76.7377H191.647C195.548 76.7377 198.709 79.8992 198.709 83.8001V299.865C198.709 303.764 195.548 306.926 191.647 306.926ZM-89.554 86.0303V297.633C-89.554 308.169 -81.0129 316.71 -70.4771 316.71H191.393C201.927 316.71 210.47 308.169 210.47 297.633V86.0303C210.47 75.4945 201.927 66.9535 191.393 66.9535H-70.4771C-81.0129 66.9535 -89.554 75.4945 -89.554 86.0303Z" fill="#F8DA81"/>
<path d="M388.453 506.636C370.537 506.636 356.018 492.116 356.018 474.2C356.018 456.284 370.537 441.764 388.453 441.764C406.37 441.764 420.889 456.284 420.889 474.2C420.889 492.116 406.37 506.636 388.453 506.636ZM388.453 431.028C364.606 431.028 345.282 450.353 345.282 474.2C345.282 498.047 364.606 517.372 388.453 517.372C412.299 517.372 431.625 498.047 431.625 474.2C431.625 450.353 412.299 431.028 388.453 431.028Z" fill="#FFE5C6"/>
<path d="M391.828 186.154V460.792C391.828 467.85 386.108 473.572 379.049 473.572H-39.7327C-46.791 473.572 -52.5132 467.85 -52.5132 460.792V186.154C-52.5132 169.856 -39.2928 156.628 -22.9872 156.628H362.302C378.612 156.628 391.828 169.856 391.828 186.154Z" fill="#FCF9FD"/>
<path d="M391.828 186.154H390.795V460.792C390.795 464.04 389.482 466.971 387.355 469.1C385.226 471.227 382.296 472.538 379.049 472.54H-39.7326C-42.9809 472.538 -45.9112 471.227 -48.0382 469.1C-50.1673 466.971 -51.4785 464.04 -51.4806 460.792V186.154C-51.4785 178.288 -48.2922 171.17 -43.1337 166.009C-37.9753 160.851 -30.8571 157.66 -22.9872 157.66H362.302C370.176 157.66 377.292 160.851 382.45 166.009C387.609 171.17 390.795 178.288 390.795 186.154H391.828H392.86C392.86 169.287 379.182 155.598 362.302 155.595H-22.9872C-39.8648 155.598 -53.5436 169.287 -53.5457 186.154V460.792C-53.5436 468.42 -47.3609 474.603 -39.7326 474.605H379.049C386.678 474.603 392.86 468.42 392.86 460.792V186.154H391.828Z" fill="#AA9CD5"/>
<path d="M391.828 186.154V187.397H-52.5132V186.154C-52.5132 169.856 -39.2928 156.628 -22.9872 156.628H362.302C378.612 156.628 391.828 169.856 391.828 186.154Z" fill="#FFB054"/>
<path d="M25.2688 210.717H-28.0713C-31.6335 210.717 -34.5225 207.828 -34.5225 204.266C-34.5225 200.704 -31.6335 197.817 -28.0713 197.817H25.2688C28.831 197.817 31.7199 200.704 31.7199 204.266C31.7199 207.828 28.831 210.717 25.2688 210.717Z" fill="#F9AA3A"/>
<path d="M222.247 209.352H198.747C196.659 209.352 194.964 207.659 194.964 205.569C194.964 203.479 196.659 201.786 198.747 201.786H222.247C224.337 201.786 226.03 203.479 226.03 205.569C226.03 207.659 224.337 209.352 222.247 209.352Z" fill="#FFE5C6"/>
<path d="M266.685 209.352H243.184C241.095 209.352 239.401 207.659 239.401 205.569C239.401 203.479 241.095 201.786 243.184 201.786H266.685C268.772 201.786 270.468 203.479 270.468 205.569C270.468 207.659 268.772 209.352 266.685 209.352Z" fill="#FFE5C6"/>
<path d="M311.787 209.352H288.287C286.197 209.352 284.504 207.659 284.504 205.569C284.504 203.479 286.197 201.786 288.287 201.786H311.787C313.875 201.786 315.57 203.479 315.57 205.569C315.57 207.659 313.875 209.352 311.787 209.352Z" fill="#FFE5C6"/>
<path d="M356.222 209.352H332.722C330.634 209.352 328.939 207.659 328.939 205.569C328.939 203.479 330.634 201.786 332.722 201.786H356.222C358.314 201.786 360.008 203.479 360.008 205.569C360.008 207.659 358.314 209.352 356.222 209.352Z" fill="#FFE5C6"/>
<path d="M165.192 369H-8.71981C-11.1875 369 -13.1865 366.999 -13.1865 364.534V253.885C-13.1865 251.419 -11.1875 249.42 -8.71981 249.42H165.192C167.659 249.42 169.658 251.419 169.658 253.885V364.534C169.658 366.999 167.659 369 165.192 369Z" fill="#FF961B" fill-opacity="0.39"/>
<path d="M309.333 268.274H210.594C208.675 268.274 207.12 266.719 207.12 264.801V252.892C207.12 250.975 208.675 249.42 210.594 249.42H309.333C311.252 249.42 312.809 250.975 312.809 252.892V264.801C312.809 266.719 311.252 268.274 309.333 268.274Z" fill="#FFE5C6"/>
<path d="M281.154 291.037H210.47C208.619 291.037 207.12 289.538 207.12 287.688C207.12 285.84 208.619 284.338 210.47 284.338H281.154C283.004 284.338 284.503 285.84 284.503 287.688C284.503 289.538 283.004 291.037 281.154 291.037Z" fill="#FFE5C6"/>
<path d="M351.884 307.225H210.47C208.619 307.225 207.12 305.726 207.12 303.875C207.12 302.025 208.619 300.526 210.47 300.526H351.884C353.732 300.526 355.231 302.025 355.231 303.875C355.231 305.726 353.732 307.225 351.884 307.225Z" fill="#FFE5C6"/>
<path d="M351.884 323.413H210.47C208.619 323.413 207.12 321.914 207.12 320.065C207.12 318.213 208.619 316.716 210.47 316.716H351.884C353.732 316.716 355.231 318.213 355.231 320.065C355.231 321.914 353.732 323.413 351.884 323.413Z" fill="#FFE5C6"/>
<path d="M351.884 339.603H210.47C208.619 339.603 207.12 338.102 207.12 336.253C207.12 334.403 208.619 332.904 210.47 332.904H351.884C353.732 332.904 355.231 334.403 355.231 336.253C355.231 338.102 353.732 339.603 351.884 339.603Z" fill="#FFE5C6"/>
<path d="M255.031 374.275H214.408C210.383 374.275 207.12 371.012 207.12 366.985C207.12 362.961 210.383 359.696 214.408 359.696H255.031C259.056 359.696 262.319 362.961 262.319 366.985C262.319 371.012 259.056 374.275 255.031 374.275Z" fill="#FFE5C6"/>
<path d="M391.828 414.405V460.792C391.828 467.85 386.108 473.572 379.049 473.572H-39.7327C-46.791 473.572 -52.5132 467.85 -52.5132 460.792V414.405H391.828Z" fill="#FFE5C6"/>
<path d="M273.736 441.256V473.572H65.5823V441.256C65.5823 437.521 68.6097 434.493 72.3433 434.493H266.971C270.707 434.493 273.736 437.521 273.736 441.256Z" fill="#FF961B" fill-opacity="0.39"/>
<path d="M324.344 173.441C324.344 175.566 322.622 177.286 320.497 177.286C318.374 177.286 316.652 175.566 316.652 173.441C316.652 171.316 318.374 169.596 320.497 169.596C322.622 169.596 324.344 171.316 324.344 173.441Z" fill="#F9AA3A"/>
<path d="M345.369 173.441C345.369 175.566 343.649 177.286 341.524 177.286C339.401 177.286 337.681 175.566 337.681 173.441C337.681 171.316 339.401 169.596 341.524 169.596C343.649 169.596 345.369 171.316 345.369 173.441Z" fill="#F9AA3A"/>
<path d="M365.466 173.441C365.466 175.566 363.743 177.286 361.619 177.286C359.496 177.286 357.773 175.566 357.773 173.441C357.773 171.316 359.496 169.596 361.619 169.596C363.743 169.596 365.466 171.316 365.466 173.441Z" fill="#F9AA3A"/>
<path d="M391.828 186.154H390.795V460.792C390.795 464.04 389.482 466.971 387.355 469.1C385.226 471.227 382.296 472.538 379.049 472.54H-39.7326C-42.9809 472.538 -45.9112 471.227 -48.0382 469.1C-50.1673 466.971 -51.4785 464.04 -51.4806 460.792V186.154C-51.4785 178.288 -48.2922 171.17 -43.1337 166.009C-37.9753 160.851 -30.8571 157.66 -22.9872 157.66H362.302C370.176 157.66 377.292 160.851 382.45 166.009C387.609 171.17 390.795 178.288 390.795 186.154H391.828H392.86C392.86 169.287 379.182 155.598 362.302 155.595H-22.9872C-39.8648 155.598 -53.5436 169.287 -53.5457 186.154V460.792C-53.5436 468.42 -47.3609 474.603 -39.7326 474.605H379.049C386.678 474.603 392.86 468.42 392.86 460.792V186.154H391.828Z" fill="#FFB35A"/>
<path d="M155.269 214.717H101.929C98.3665 214.717 95.4775 211.828 95.4775 208.266C95.4775 204.704 98.3665 201.817 101.929 201.817H155.269C158.831 201.817 161.72 204.704 161.72 208.266C161.72 211.828 158.831 214.717 155.269 214.717Z" fill="#E89539"/>
<path d="M40.446 286.795H52.2071V148.427H40.446V286.795Z" fill="#E1BC7F"/>
<path d="M151.83 134.486V262.209C151.83 265.152 149.439 267.527 146.511 267.527H-23.7992C-26.7274 267.527 -29.1167 265.152 -29.1167 262.209V134.486C-29.1167 131.544 -26.7274 129.169 -23.7992 129.169H146.511C149.439 129.169 151.83 131.544 151.83 134.486Z" fill="#FBC833"/>
<path d="M151.83 215.868V262.209C151.83 265.152 149.439 267.527 146.511 267.527H-23.7992C-26.7274 267.527 -29.1167 265.152 -29.1167 262.209V217.617C-29.1167 217.617 -0.0512447 167.521 20.5537 167.521C46.2325 167.521 60.8509 225.978 73.6067 225.978C86.3604 225.978 102.998 185.763 119.893 185.763C130.017 185.763 143.027 202.472 151.83 215.868Z" fill="#FDE7A0"/>
<path d="M128.599 157.803C128.599 164.31 123.323 169.588 116.814 169.588C110.305 169.588 105.028 164.31 105.028 157.803C105.028 151.294 110.305 146.018 116.814 146.018C123.323 146.018 128.599 151.294 128.599 157.803Z" fill="#FDE7A0"/>
<path d="M439.677 396.003H392.861V255.177H439.677C441.569 255.177 443.101 256.71 443.101 258.603V392.579C443.101 394.471 441.569 396.003 439.677 396.003Z" fill="#FF961B" fill-opacity="0.39"/>
<path d="M390.796 396.003H341.105C339.213 396.003 337.681 394.471 337.681 392.579V339.603H351.884C353.732 339.603 355.231 338.101 355.231 336.253C355.231 334.403 353.732 332.904 351.884 332.904H337.681V323.413H351.884C353.732 323.413 355.231 321.913 355.231 320.065C355.231 318.213 353.732 316.716 351.884 316.716H337.681V307.225H351.884C353.732 307.225 355.231 305.726 355.231 303.875C355.231 302.025 353.732 300.526 351.884 300.526H337.681V258.603C337.681 256.71 339.213 255.177 341.105 255.177H390.796V396.003Z" fill="#FF961B" fill-opacity="0.39"/>
<path d="M457.079 380.292H358.507C356.615 380.292 355.081 378.758 355.081 376.866V242.891C355.081 240.999 356.615 239.465 358.507 239.465H457.079C458.971 239.465 460.503 240.999 460.503 242.891V376.866C460.503 378.758 458.971 380.292 457.079 380.292Z" fill="#FFE5C6"/>
<path d="M442.174 264.055H373.41V254.762H442.174V264.055Z" fill="#FF961B" fill-opacity="0.39"/>
<path d="M422.194 365.34H393.389C390.521 365.34 388.195 363.014 388.195 360.144C388.195 357.276 390.521 354.948 393.389 354.948H422.194C425.064 354.948 427.39 357.276 427.39 360.144C427.39 363.014 425.064 365.34 422.194 365.34Z" fill="#FF961B" fill-opacity="0.39"/>
<path d="M409.641 281.965H381.686C380.567 281.965 379.663 281.057 379.663 279.94V279.595C379.663 278.478 380.567 277.571 381.686 277.571H409.641C410.76 277.571 411.667 278.478 411.667 279.595V279.94C411.667 281.057 410.76 281.965 409.641 281.965Z" fill="#FF961B" fill-opacity="0.39"/>
<path d="M445.808 292.77H381.686C380.567 292.77 379.663 291.861 379.663 290.744V290.399C379.663 289.282 380.567 288.375 381.686 288.375H445.808C446.927 288.375 447.832 289.282 447.832 290.399V290.744C447.832 291.861 446.927 292.77 445.808 292.77Z" fill="#FF961B" fill-opacity="0.39"/>
<path d="M445.808 303.574H381.686C380.567 303.574 379.663 302.667 379.663 301.55V301.205C379.663 300.088 380.567 299.179 381.686 299.179H445.808C446.927 299.179 447.832 300.088 447.832 301.205V301.55C447.832 302.667 446.927 303.574 445.808 303.574Z" fill="#FF961B" fill-opacity="0.39"/>
<path d="M368.555 279.766C368.555 280.98 367.57 281.965 366.358 281.965C365.144 281.965 364.163 280.98 364.163 279.766C364.163 278.554 365.144 277.571 366.358 277.571C367.57 277.571 368.555 278.554 368.555 279.766Z" fill="#FF961B" fill-opacity="0.39"/>
<path d="M409.641 317.852H381.686C380.567 317.852 379.663 316.945 379.663 315.828V315.483C379.663 314.366 380.567 313.459 381.686 313.459H409.641C410.76 313.459 411.667 314.366 411.667 315.483V315.828C411.667 316.945 410.76 317.852 409.641 317.852Z" fill="#FF961B" fill-opacity="0.39"/>
<path d="M445.808 328.658H381.686C380.567 328.658 379.663 327.749 379.663 326.632V326.287C379.663 325.17 380.567 324.264 381.686 324.264H445.808C446.927 324.264 447.832 325.17 447.832 326.287V326.632C447.832 327.749 446.927 328.658 445.808 328.658Z" fill="#FF961B" fill-opacity="0.39"/>
<path d="M445.808 339.462H381.686C380.567 339.462 379.663 338.556 379.663 337.439V337.094C379.663 335.977 380.567 335.068 381.686 335.068H445.808C446.927 335.068 447.832 335.977 447.832 337.094V337.439C447.832 338.556 446.927 339.462 445.808 339.462Z" fill="#FF961B" fill-opacity="0.39"/>
<path d="M368.555 315.655C368.555 316.869 367.57 317.852 366.358 317.852C365.144 317.852 364.163 316.869 364.163 315.655C364.163 314.442 365.144 313.459 366.358 313.459C367.57 313.459 368.555 314.442 368.555 315.655Z" fill="#FF961B" fill-opacity="0.39"/>
<path d="M455.123 278.946C454.055 279.642 452.884 280.163 451.66 280.51L446.881 281.872L443.499 282.82C442.511 283.097 441.671 282.077 442.133 281.162L443.715 278.031L445.95 273.59C446.524 272.472 447.247 271.45 448.112 270.533C449.939 271.074 454.183 272.956 455.123 278.946Z" fill="#FDE7A0"/>
<path d="M210.47 148.789H198.709V83.7999C198.709 79.8991 195.548 76.7375 191.647 76.7375H150.74V66.9533H191.393C201.926 66.9533 210.47 75.4943 210.47 86.0302V148.789Z" fill="#FFB35A"/>
<path d="M273.737 472.54H209.528V434.493H266.972C270.707 434.493 273.737 437.521 273.737 441.256V472.54Z" fill="#FF961B" fill-opacity="0.39"/>
<path d="M388.837 115.779V114.747C382.368 114.747 376.521 112.126 372.284 107.884C368.046 103.641 365.428 97.7926 365.428 91.3228C365.428 84.853 368.047 79.0069 372.282 74.7674C376.521 70.532 382.368 67.9135 388.837 67.9135C395.307 67.9135 401.151 70.532 405.391 74.7674C409.626 79.0069 412.245 84.851 412.245 91.3228C412.245 97.7926 409.626 103.641 405.391 107.884C401.151 112.126 395.305 114.747 388.837 114.747V115.779V116.812C402.911 116.812 414.31 105.394 414.31 91.3228C414.31 77.2475 402.909 65.8485 388.837 65.8485C374.764 65.8485 363.363 77.2475 363.363 91.3228C363.363 105.394 374.762 116.812 388.837 116.812V115.779ZM427.836 99.5954L428.026 100.609L442.047 97.9661V84.4276L428.013 82.0116L427.838 83.0296L428.796 82.6455L428.794 82.6393L427.836 83.0234L428.845 82.8107C427.796 77.8236 425.828 73.1608 423.121 69.0369L422.258 69.6027L423.111 70.1851L431.156 58.3978L421.583 48.8242L409.944 57.0431L410.541 57.8877L411.105 57.0225C406.968 54.3173 402.32 52.3617 397.321 51.3147L397.215 51.292H397.106V52.3245L398.12 52.1324L395.476 38.1191H381.938L379.524 52.149L380.542 52.3245V51.292H380.538H380.428L380.325 51.3147C375.336 52.3637 370.673 54.3338 366.547 57.0411L367.115 57.9043L366.653 56.9812L366.648 56.9832L367.111 57.9063L367.693 57.0535L355.908 49.0081L346.335 58.5816L354.558 70.2264L355.402 69.6295L354.537 69.0658C351.832 73.2021 349.876 77.8526 348.827 82.8396L349.837 83.0523L348.835 82.8024L348.833 82.8086L349.835 83.0606L349.645 82.0446L335.627 84.6878V98.2263L349.663 100.642L349.837 99.6242L348.827 99.837C349.876 104.838 351.846 109.487 354.552 113.623L355.417 113.057L354.564 112.475L346.518 124.256L356.094 133.83L367.743 125.602L367.146 124.76L366.582 125.625C370.717 128.328 375.365 130.298 380.356 131.333L380.565 130.323L380.315 131.325H380.319L380.569 130.323L379.555 130.515L382.198 144.537H395.739L398.155 130.499L397.139 130.323L397.349 131.333C402.349 130.286 406.997 128.316 411.129 125.613L410.566 124.748L409.983 125.6L421.766 133.646L431.342 124.072L423.119 112.43L422.274 113.024L423.14 113.59C425.843 109.456 427.813 104.808 428.845 99.806L428.868 99.7007V99.5954H427.836L428.026 100.609L427.836 99.5954H426.803V99.5974H427.836L426.824 99.3868C425.845 104.128 423.978 108.535 421.411 112.461L421.027 113.047L428.651 123.843L421.517 130.976L410.576 123.506L410 123.884C406.074 126.451 401.667 128.318 396.926 129.313L396.238 129.456L394 142.472H383.91L381.461 129.483L380.815 129.322L380.794 129.315L380.775 129.311C376.044 128.33 371.64 126.464 367.712 123.897L367.123 123.513L356.323 131.139L349.189 124.006L356.658 113.07L356.28 112.492C353.711 108.566 351.844 104.159 350.849 99.4137L350.704 98.726L337.692 96.4875V86.3998L350.677 83.9527L350.838 83.3022L350.845 83.2836L350.849 83.265C351.844 78.5299 353.699 74.121 356.265 70.1954L356.65 69.6068L349.025 58.8108L356.158 51.6781L367.028 59.102L367.576 58.8273L367.629 58.8005L367.681 58.7674C371.594 56.1985 376.018 54.3297 380.749 53.3343L380.538 52.3245V53.3571H380.542H381.411L383.677 40.1842H393.764L396.249 53.3571H397.108V52.3245L396.895 53.3343C401.643 54.3317 406.049 56.1841 409.975 58.7509L410.564 59.135L421.353 51.5129L428.486 58.6477L421.015 69.5924L421.395 70.1685C423.962 74.0818 425.828 78.503 426.826 83.2361L426.842 83.3228L426.88 83.4117L427.092 83.9485L439.982 86.1664V96.2541L426.803 98.7384V99.5954H427.836Z" fill="#FFE5C6"/>
<path d="M448.173 173.193L448.689 172.299C444.313 169.772 441.87 165.189 441.87 160.471C441.87 158.154 442.459 155.81 443.702 153.656C446.229 149.276 450.81 146.831 455.526 146.829C457.841 146.831 460.181 147.418 462.335 148.661C466.713 151.188 469.158 155.769 469.16 160.485C469.16 162.8 468.571 165.142 467.328 167.294C464.8 171.676 460.212 174.125 455.491 174.127C453.178 174.127 450.839 173.538 448.689 172.299L448.173 173.193L447.656 174.088C450.126 175.512 452.829 176.192 455.491 176.192C460.922 176.192 466.207 173.367 469.118 168.326C470.543 165.854 471.225 163.151 471.225 160.485C471.227 155.06 468.406 149.78 463.367 146.872C460.895 145.445 458.19 144.764 455.526 144.764C450.101 144.764 444.821 147.585 441.914 152.624C440.485 155.095 439.803 157.803 439.805 160.471C439.803 165.896 442.62 171.178 447.656 174.088L448.173 173.193ZM473.31 176.481L472.97 177.456L481.376 180.403L485.783 172.764L478.944 167.075L478.285 167.868H479.316V167.866H478.285L479.266 168.186C480.084 165.687 480.482 163.11 480.482 160.555C480.482 160.087 480.468 159.618 480.443 159.153L479.411 159.211L479.859 160.142L487.89 156.281L485.606 147.762L476.743 148.574L476.835 149.602L477.759 149.138C476.396 146.445 474.533 143.99 472.21 141.91L472.106 141.817L471.981 141.755L471.518 142.678L472.493 143.019L475.439 134.616L467.803 130.208L462.112 137.047L462.905 137.708L463.367 136.783H463.365L463.297 136.748L463.225 136.725C460.726 135.907 458.147 135.509 455.594 135.509C455.126 135.509 454.657 135.521 454.19 135.548L454.25 136.578V135.546H454.248V136.578L455.177 136.13L451.316 128.101L442.799 130.385L443.613 139.255L444.641 139.162L444.175 138.239C441.48 139.601 439.025 141.464 436.949 143.781L436.856 143.884L436.792 144.012L437.715 144.473L438.056 143.5L429.651 140.553L425.244 148.19L432.084 153.881L432.745 153.088L431.764 152.766C430.94 155.277 430.543 157.854 430.543 160.415C430.543 160.88 430.556 161.342 430.583 161.805L431.613 161.747L431.165 160.816L423.138 164.675L425.422 173.193L434.294 172.38L434.201 171.351L433.28 171.818C434.64 174.511 436.497 176.972 438.82 179.042L439.508 178.271L438.779 179.002L438.781 179.004L439.51 178.273L438.535 177.933L435.588 186.34L443.229 190.748L448.918 183.907L448.125 183.246L447.803 184.227C450.314 185.049 452.893 185.447 455.452 185.447C455.915 185.447 456.377 185.433 456.838 185.408L456.78 184.378L455.85 184.824L459.712 192.855L468.23 190.571L467.417 181.701L466.388 181.796L466.853 182.717C469.546 181.357 472.007 179.498 474.083 177.169L473.31 176.481L472.97 177.456L473.31 176.481L472.54 175.795C470.642 177.927 468.391 179.626 465.922 180.873L465.296 181.191L466.015 189.026L460.831 190.416L457.412 183.308L456.724 183.345C456.301 183.37 455.875 183.382 455.452 183.382C453.106 183.382 450.746 183.019 448.447 182.265L447.78 182.046L442.754 188.089L438.103 185.406L440.699 178.003L440.239 177.542L440.218 177.522L440.195 177.501C438.071 175.607 436.371 173.357 435.122 170.887L434.806 170.259L426.967 170.978L425.577 165.794L432.683 162.377L432.644 161.687C432.621 161.266 432.608 160.84 432.608 160.415C432.608 158.069 432.972 155.709 433.726 153.41L433.945 152.743L427.902 147.717L430.585 143.069L438.232 145.749L438.64 144.931L437.717 144.469L438.486 145.158C440.389 143.036 442.638 141.33 445.106 140.083L445.732 139.767L445.013 131.93L450.196 130.54L453.598 137.611H454.25H454.279L454.31 137.609C454.735 137.584 455.165 137.574 455.594 137.574C457.932 137.574 460.294 137.937 462.582 138.687L462.903 137.706L462.442 138.629L462.444 138.631L463.175 138.996L468.276 132.865L472.924 135.548L470.242 143.195L471.06 143.604L471.52 142.678L470.832 143.449C472.963 145.357 474.667 147.601 475.914 150.069L476.23 150.695L484.063 149.978L485.453 155.162L478.341 158.579L478.38 159.269C478.405 159.698 478.417 160.126 478.417 160.555C478.417 162.893 478.052 165.253 477.302 167.544L477.253 167.7V167.868V168.351L483.125 173.239L480.443 177.887L473.001 175.279L472.54 175.795L473.31 176.481Z" fill="#FFE5C6"/>
</g>
<defs>
<filter id="filter0_d_126_319" x="697.783" y="119.669" width="237.356" height="237.356" filterUnits="userSpaceOnUse" color-interpolation-filters="sRGB">
<feFlood flood-opacity="0" result="BackgroundImageFix"/>
<feColorMatrix in="SourceAlpha" type="matrix" values="0 0 0 0 0 0 0 0 0 0 0 0 0 0 0 0 0 0 127 0" result="hardAlpha"/>
<feMorphology radius="2" operator="dilate" in="SourceAlpha" result="effect1_dropShadow_126_319"/>
<feOffset dy="4"/>
<feGaussianBlur stdDeviation="10"/>
<feComposite in2="hardAlpha" operator="out"/>
<feColorMatrix type="matrix" values="0 0 0 0 0.725293 0 0 0 0 0.432314 0 0 0 0 0.0891112 0 0 0 1 0"/>
<feBlend mode="normal" in2="BackgroundImageFix" result="effect1_dropShadow_126_319"/>
<feBlend mode="normal" in="SourceGraphic" in2="effect1_dropShadow_126_319" result="shape"/>
</filter>
<filter id="filter1_d_126_319" x="515.166" y="70.7372" width="237.356" height="237.356" filterUnits="userSpaceOnUse" color-interpolation-filters="sRGB">
<feFlood flood-opacity="0" result="BackgroundImageFix"/>
<feColorMatrix in="SourceAlpha" type="matrix" values="0 0 0 0 0 0 0 0 0 0 0 0 0 0 0 0 0 0 127 0" result="hardAlpha"/>
<feMorphology radius="2" operator="dilate" in="SourceAlpha" result="effect1_dropShadow_126_319"/>
<feOffset dy="4"/>
<feGaussianBlur stdDeviation="10"/>
<feComposite in2="hardAlpha" operator="out"/>
<feColorMatrix type="matrix" values="0 0 0 0 0.725293 0 0 0 0 0.432314 0 0 0 0 0.0891112 0 0 0 1 0"/>
<feBlend mode="normal" in2="BackgroundImageFix" result="effect1_dropShadow_126_319"/>
<feBlend mode="normal" in="SourceGraphic" in2="effect1_dropShadow_126_319" result="shape"/>
</filter>
<filter id="filter2_d_126_319" x="579.419" y="287.479" width="224.229" height="224.229" filterUnits="userSpaceOnUse" color-interpolation-filters="sRGB">
<feFlood flood-opacity="0" result="BackgroundImageFix"/>
<feColorMatrix in="SourceAlpha" type="matrix" values="0 0 0 0 0 0 0 0 0 0 0 0 0 0 0 0 0 0 127 0" result="hardAlpha"/>
<feMorphology radius="2" operator="dilate" in="SourceAlpha" result="effect1_dropShadow_126_319"/>
<feOffset dy="4"/>
<feGaussianBlur stdDeviation="10"/>
<feComposite in2="hardAlpha" operator="out"/>
<feColorMatrix type="matrix" values="0 0 0 0 0.725293 0 0 0 0 0.432314 0 0 0 0 0.0891112 0 0 0 1 0"/>
<feBlend mode="normal" in2="BackgroundImageFix" result="effect1_dropShadow_126_319"/>
<feBlend mode="normal" in="SourceGraphic" in2="effect1_dropShadow_126_319" result="shape"/>
</filter>
<filter id="filter3_d_126_319" x="677.031" y="-76.8153" width="224.229" height="224.229" filterUnits="userSpaceOnUse" color-interpolation-filters="sRGB">
<feFlood flood-opacity="0" result="BackgroundImageFix"/>
<feColorMatrix in="SourceAlpha" type="matrix" values="0 0 0 0 0 0 0 0 0 0 0 0 0 0 0 0 0 0 127 0" result="hardAlpha"/>
<feMorphology radius="2" operator="dilate" in="SourceAlpha" result="effect1_dropShadow_126_319"/>
<feOffset dy="4"/>
<feGaussianBlur stdDeviation="10"/>
<feComposite in2="hardAlpha" operator="out"/>
<feColorMatrix type="matrix" values="0 0 0 0 0.725293 0 0 0 0 0.432314 0 0 0 0 0.0891112 0 0 0 1 0"/>
<feBlend mode="normal" in2="BackgroundImageFix" result="effect1_dropShadow_126_319"/>
<feBlend mode="normal" in="SourceGraphic" in2="effect1_dropShadow_126_319" result="shape"/>
</filter>
<filter id="filter4_d_126_319" x="761.095" y="336.158" width="224.229" height="224.229" filterUnits="userSpaceOnUse" color-interpolation-filters="sRGB">
<feFlood flood-opacity="0" result="BackgroundImageFix"/>
<feColorMatrix in="SourceAlpha" type="matrix" values="0 0 0 0 0 0 0 0 0 0 0 0 0 0 0 0 0 0 127 0" result="hardAlpha"/>
<feMorphology radius="2" operator="dilate" in="SourceAlpha" result="effect1_dropShadow_126_319"/>
<feOffset dy="4"/>
<feGaussianBlur stdDeviation="10"/>
<feComposite in2="hardAlpha" operator="out"/>
<feColorMatrix type="matrix" values="0 0 0 0 0.725293 0 0 0 0 0.432314 0 0 0 0 0.0891112 0 0 0 1 0"/>
<feBlend mode="normal" in2="BackgroundImageFix" result="effect1_dropShadow_126_319"/>
<feBlend mode="normal" in="SourceGraphic" in2="effect1_dropShadow_126_319" result="shape"/>
</filter>
<filter id="filter5_d_126_319" x="495.355" y="-125.495" width="224.229" height="224.229" filterUnits="userSpaceOnUse" color-interpolation-filters="sRGB">
<feFlood flood-opacity="0" result="BackgroundImageFix"/>
<feColorMatrix in="SourceAlpha" type="matrix" values="0 0 0 0 0 0 0 0 0 0 0 0 0 0 0 0 0 0 127 0" result="hardAlpha"/>
<feMorphology radius="2" operator="dilate" in="SourceAlpha" result="effect1_dropShadow_126_319"/>
<feOffset dy="4"/>
<feGaussianBlur stdDeviation="10"/>
<feComposite in2="hardAlpha" operator="out"/>
<feColorMatrix type="matrix" values="0 0 0 0 0.725293 0 0 0 0 0.432314 0 0 0 0 0.0891112 0 0 0 1 0"/>
<feBlend mode="normal" in2="BackgroundImageFix" result="effect1_dropShadow_126_319"/>
<feBlend mode="normal" in="SourceGraphic" in2="effect1_dropShadow_126_319" result="shape"/>
</filter>
<filter id="filter6_d_126_319" x="858.96" y="-29.0767" width="224.229" height="224.229" filterUnits="userSpaceOnUse" color-interpolation-filters="sRGB">
<feFlood flood-opacity="0" result="BackgroundImageFix"/>
<feColorMatrix in="SourceAlpha" type="matrix" values="0 0 0 0 0 0 0 0 0 0 0 0 0 0 0 0 0 0 127 0" result="hardAlpha"/>
<feMorphology radius="2" operator="dilate" in="SourceAlpha" result="effect1_dropShadow_126_319"/>
<feOffset dy="4"/>
<feGaussianBlur stdDeviation="10"/>
<feComposite in2="hardAlpha" operator="out"/>
<feColorMatrix type="matrix" values="0 0 0 0 0.725293 0 0 0 0 0.432314 0 0 0 0 0.0891112 0 0 0 1 0"/>
<feBlend mode="normal" in2="BackgroundImageFix" result="effect1_dropShadow_126_319"/>
<feBlend mode="normal" in="SourceGraphic" in2="effect1_dropShadow_126_319" result="shape"/>
</filter>
<filter id="filter7_d_126_319" x="886.023" y="174.913" width="224.229" height="224.229" filterUnits="userSpaceOnUse" color-interpolation-filters="sRGB">
<feFlood flood-opacity="0" result="BackgroundImageFix"/>
<feColorMatrix in="SourceAlpha" type="matrix" values="0 0 0 0 0 0 0 0 0 0 0 0 0 0 0 0 0 0 127 0" result="hardAlpha"/>
<feMorphology radius="2" operator="dilate" in="SourceAlpha" result="effect1_dropShadow_126_319"/>
<feOffset dy="4"/>
<feGaussianBlur stdDeviation="10"/>
<feComposite in2="hardAlpha" operator="out"/>
<feColorMatrix type="matrix" values="0 0 0 0 0.725293 0 0 0 0 0.432314 0 0 0 0 0.0891112 0 0 0 1 0"/>
<feBlend mode="normal" in2="BackgroundImageFix" result="effect1_dropShadow_126_319"/>
<feBlend mode="normal" in="SourceGraphic" in2="effect1_dropShadow_126_319" result="shape"/>
</filter>
<clipPath id="clip0_126_319">
<rect width="944" height="495" rx="40" transform="matrix(-1 0 0 1 944 0)" fill="white"/>
</clipPath>
<clipPath id="clip1_126_319">
<rect width="120" height="120" fill="white" transform="translate(773.574 160.515) rotate(15)"/>
</clipPath>
<clipPath id="clip2_126_319">
<rect width="111.097" height="111.097" fill="white" transform="translate(595.254 117.561) rotate(15)"/>
</clipPath>
</defs>
</svg>
